<svg xmlns="http://www.w3.org/2000/svg" xmlns:xlink="http://www.w3.org/1999/xlink" xmlns:s="https://github.com/nturley/netlistsvg" width="314" height="294"><style>svg {
  stroke: #000;
  fill: none;
}
text {
  fill: #000;
  stroke: none;
  font-size: 10px;
  font-weight: bold;
  font-family: "Courier New", monospace;
}
.nodelabel {
  text-anchor: middle;
}
.inputPortLabel {
  text-anchor: end;
}
.splitjoinBody {
  fill: #000;
}
.symbol {
  stroke-linejoin: round;
  stroke-linecap: round;
  stroke-width: 2;
}
.detail {
  stroke-linejoin: round;
  stroke-linecap: round;
  fill: #000;
}</style><g s:type="breaker_v" s:width="60" s:height="50" transform="translate(122,32)" id="cell_K11"><s:alias val="breaker_v"/><rect x="10" y="10" width="30" height="30" class="symbol cell_K11"/><text x="45" y="30" s:attribute="ref" class="cell_K11">K11</text><line x1="25" y1="0" x2="25" y2="10" class="connect cell_K11"/><line x1="25" y1="40" x2="25" y2="50" class="connect cell_K11"/><g s:x="25" s:y="0" s:pid="A" s:position="top"/><g s:x="25" s:y="50" s:pid="B" s:position="bottom"/></g><g s:type="breaker_v" s:width="60" s:height="50" transform="translate(122,122)" id="cell_K12"><s:alias val="breaker_v"/><rect x="10" y="10" width="30" height="30" class="symbol cell_K12"/><text x="45" y="30" s:attribute="ref" class="cell_K12">K12</text><line x1="25" y1="0" x2="25" y2="10" class="connect cell_K12"/><line x1="25" y1="40" x2="25" y2="50" class="connect cell_K12"/><g s:x="25" s:y="0" s:pid="A" s:position="top"/><g s:x="25" s:y="50" s:pid="B" s:position="bottom"/></g><g s:type="breaker_v" s:width="60" s:height="50" transform="translate(122,212)" id="cell_K13"><s:alias val="breaker_v"/><rect x="10" y="10" width="30" height="30" class="symbol cell_K13"/><text x="45" y="30" s:attribute="ref" class="cell_K13">K13</text><line x1="25" y1="0" x2="25" y2="10" class="connect cell_K13"/><line x1="25" y1="40" x2="25" y2="50" class="connect cell_K13"/><g s:x="25" s:y="0" s:pid="A" s:position="top"/><g s:x="25" s:y="50" s:pid="B" s:position="bottom"/></g><g s:type="breaker_v" s:width="60" s:height="50" transform="translate(217,32)" id="cell_K21"><s:alias val="breaker_v"/><rect x="10" y="10" width="30" height="30" class="symbol cell_K21"/><text x="45" y="30" s:attribute="ref" class="cell_K21">K21</text><line x1="25" y1="0" x2="25" y2="10" class="connect cell_K21"/><line x1="25" y1="40" x2="25" y2="50" class="connect cell_K21"/><g s:x="25" s:y="0" s:pid="A" s:position="top"/><g s:x="25" s:y="50" s:pid="B" s:position="bottom"/></g><g s:type="breaker_v" s:width="60" s:height="50" transform="translate(217,122)" id="cell_K22"><s:alias val="breaker_v"/><rect x="10" y="10" width="30" height="30" class="symbol cell_K22"/><text x="45" y="30" s:attribute="ref" class="cell_K22">K22</text><line x1="25" y1="0" x2="25" y2="10" class="connect cell_K22"/><line x1="25" y1="40" x2="25" y2="50" class="connect cell_K22"/><g s:x="25" s:y="0" s:pid="A" s:position="top"/><g s:x="25" s:y="50" s:pid="B" s:position="bottom"/></g><g s:type="breaker_v" s:width="60" s:height="50" transform="translate(217,212)" id="cell_K23"><s:alias val="breaker_v"/><rect x="10" y="10" width="30" height="30" class="symbol cell_K23"/><text x="45" y="30" s:attribute="ref" class="cell_K23">K23</text><line x1="25" y1="0" x2="25" y2="10" class="connect cell_K23"/><line x1="25" y1="40" x2="25" y2="50" class="connect cell_K23"/><g s:x="25" s:y="0" s:pid="A" s:position="top"/><g s:x="25" s:y="50" s:pid="B" s:position="bottom"/></g><g s:type="breaker_v" s:width="60" s:height="50" transform="translate(12,32)" id="cell_K31"><s:alias val="breaker_v"/><rect x="10" y="10" width="30" height="30" class="symbol cell_K31"/><text x="45" y="30" s:attribute="ref" class="cell_K31">K31</text><line x1="25" y1="0" x2="25" y2="10" class="connect cell_K31"/><line x1="25" y1="40" x2="25" y2="50" class="connect cell_K31"/><g s:x="25" s:y="0" s:pid="A" s:position="top"/><g s:x="25" s:y="50" s:pid="B" s:position="bottom"/></g><g s:type="breaker_v" s:width="60" s:height="50" transform="translate(12,122)" id="cell_K32"><s:alias val="breaker_v"/><rect x="10" y="10" width="30" height="30" class="symbol cell_K32"/><text x="45" y="30" s:attribute="ref" class="cell_K32">K32</text><line x1="25" y1="0" x2="25" y2="10" class="connect cell_K32"/><line x1="25" y1="40" x2="25" y2="50" class="connect cell_K32"/><g s:x="25" s:y="0" s:pid="A" s:position="top"/><g s:x="25" s:y="50" s:pid="B" s:position="bottom"/></g><g s:type="breaker_v" s:width="60" s:height="50" transform="translate(12,212)" id="cell_K33"><s:alias val="breaker_v"/><rect x="10" y="10" width="30" height="30" class="symbol cell_K33"/><text x="45" y="30" s:attribute="ref" class="cell_K33">K33</text><line x1="25" y1="0" x2="25" y2="10" class="connect cell_K33"/><line x1="25" y1="40" x2="25" y2="50" class="connect cell_K33"/><g s:x="25" s:y="0" s:pid="A" s:position="top"/><g s:x="25" s:y="50" s:pid="B" s:position="bottom"/></g><g s:type="line_exit" s:width="50" s:height="30" transform="translate(252,177)" id="cell_LINE1"><s:alias val="line_exit"/><text class="nodelabel cell_LINE1" x="20" y="25" s:attribute="ref">LINE1</text><text class="nodelabel cell_LINE1" x="20" y="35" s:attribute="value"></text><line x1="0" y1="5" x2="10" y2="5" class="connect cell_LINE1"/><path d="M10,5 l5,5 h20 v-10 h-20 l-5,5" class="symbol cell_LINE1"/><g s:x="0" s:y="5" s:pid="A" s:position="left"/></g><g s:type="line_exit" s:width="50" s:height="30" transform="translate(252,87)" id="cell_LINE2"><s:alias val="line_exit"/><text class="nodelabel cell_LINE2" x="20" y="25" s:attribute="ref">LINE2</text><text class="nodelabel cell_LINE2" x="20" y="35" s:attribute="value"></text><line x1="0" y1="5" x2="10" y2="5" class="connect cell_LINE2"/><path d="M10,5 l5,5 h20 v-10 h-20 l-5,5" class="symbol cell_LINE2"/><g s:x="0" s:y="5" s:pid="A" s:position="left"/></g><g s:type="line_exit" s:width="50" s:height="30" transform="translate(157,87)" id="cell_LINE3"><s:alias val="line_exit"/><text class="nodelabel cell_LINE3" x="20" y="25" s:attribute="ref">LINE3</text><text class="nodelabel cell_LINE3" x="20" y="35" s:attribute="value"></text><line x1="0" y1="5" x2="10" y2="5" class="connect cell_LINE3"/><path d="M10,5 l5,5 h20 v-10 h-20 l-5,5" class="symbol cell_LINE3"/><g s:x="0" s:y="5" s:pid="A" s:position="left"/></g><g s:type="line_exit" s:width="50" s:height="30" transform="translate(157,177)" id="cell_LINE4"><s:alias val="line_exit"/><text class="nodelabel cell_LINE4" x="20" y="25" s:attribute="ref">LINE4</text><text class="nodelabel cell_LINE4" x="20" y="35" s:attribute="value"></text><line x1="0" y1="5" x2="10" y2="5" class="connect cell_LINE4"/><path d="M10,5 l5,5 h20 v-10 h-20 l-5,5" class="symbol cell_LINE4"/><g s:x="0" s:y="5" s:pid="A" s:position="left"/></g><g s:type="line_exit" s:width="50" s:height="30" transform="translate(47,87)" id="cell_LINE5 long name"><s:alias val="line_exit"/><text class="nodelabel cell_LINE5 long name" x="20" y="25" s:attribute="ref">LINE5 long name</text><text class="nodelabel cell_LINE5 long name" x="20" y="35" s:attribute="value"></text><line x1="0" y1="5" x2="10" y2="5" class="connect cell_LINE5 long name"/><path d="M10,5 l5,5 h20 v-10 h-20 l-5,5" class="symbol cell_LINE5 long name"/><g s:x="0" s:y="5" s:pid="A" s:position="left"/></g><g s:type="line_exit" s:width="50" s:height="30" transform="translate(47,177)" id="cell_LINE6"><s:alias val="line_exit"/><text class="nodelabel cell_LINE6" x="20" y="25" s:attribute="ref">LINE6</text><text class="nodelabel cell_LINE6" x="20" y="35" s:attribute="value"></text><line x1="0" y1="5" x2="10" y2="5" class="connect cell_LINE6"/><path d="M10,5 l5,5 h20 v-10 h-20 l-5,5" class="symbol cell_LINE6"/><g s:x="0" s:y="5" s:pid="A" s:position="left"/></g><line x1="37" x2="147" y1="22" y2="22" class="net_2 width_1" style="stroke-width: 1"/><circle cx="147" cy="22" r="2" style="fill:#000" class="net_2 width_1"/><line x1="147" x2="147" y1="22" y2="32" class="net_2 width_1" style="stroke-width: 1"/><line x1="37" x2="242" y1="22" y2="22" class="net_2 width_1" style="stroke-width: 1"/><line x1="242" x2="242" y1="22" y2="32" class="net_2 width_1" style="stroke-width: 1"/><line x1="37" x2="37" y1="22" y2="32" class="net_2 width_1" style="stroke-width: 1"/><line x1="147" x2="147" y1="82" y2="92" class="net_3 width_1" style="stroke-width: 1"/><circle cx="147" cy="92" r="2" style="fill:#000" class="net_3 width_1"/><line x1="147" x2="157" y1="92" y2="92" class="net_3 width_1" style="stroke-width: 1"/><line x1="157" x2="147" y1="92" y2="92" class="net_3 width_1" style="stroke-width: 1"/><circle cx="147" cy="92" r="2" style="fill:#000" class="net_3 width_1"/><line x1="147" x2="147" y1="92" y2="122" class="net_3 width_1" style="stroke-width: 1"/><line x1="147" x2="147" y1="172" y2="182" class="net_4 width_1" style="stroke-width: 1"/><circle cx="147" cy="182" r="2" style="fill:#000" class="net_4 width_1"/><line x1="147" x2="157" y1="182" y2="182" class="net_4 width_1" style="stroke-width: 1"/><line x1="157" x2="147" y1="182" y2="182" class="net_4 width_1" style="stroke-width: 1"/><circle cx="147" cy="182" r="2" style="fill:#000" class="net_4 width_1"/><line x1="147" x2="147" y1="182" y2="212" class="net_4 width_1" style="stroke-width: 1"/><line x1="242" x2="242" y1="82" y2="92" class="net_6 width_1" style="stroke-width: 1"/><circle cx="242" cy="92" r="2" style="fill:#000" class="net_6 width_1"/><line x1="242" x2="252" y1="92" y2="92" class="net_6 width_1" style="stroke-width: 1"/><line x1="252" x2="242" y1="92" y2="92" class="net_6 width_1" style="stroke-width: 1"/><circle cx="242" cy="92" r="2" style="fill:#000" class="net_6 width_1"/><line x1="242" x2="242" y1="92" y2="122" class="net_6 width_1" style="stroke-width: 1"/><line x1="242" x2="242" y1="172" y2="182" class="net_7 width_1" style="stroke-width: 1"/><circle cx="242" cy="182" r="2" style="fill:#000" class="net_7 width_1"/><line x1="242" x2="252" y1="182" y2="182" class="net_7 width_1" style="stroke-width: 1"/><line x1="252" x2="242" y1="182" y2="182" class="net_7 width_1" style="stroke-width: 1"/><circle cx="242" cy="182" r="2" style="fill:#000" class="net_7 width_1"/><line x1="242" x2="242" y1="182" y2="212" class="net_7 width_1" style="stroke-width: 1"/><line x1="37" x2="37" y1="82" y2="92" class="net_30 width_1" style="stroke-width: 1"/><circle cx="37" cy="92" r="2" style="fill:#000" class="net_30 width_1"/><line x1="37" x2="47" y1="92" y2="92" class="net_30 width_1" style="stroke-width: 1"/><line x1="47" x2="37" y1="92" y2="92" class="net_30 width_1" style="stroke-width: 1"/><circle cx="37" cy="92" r="2" style="fill:#000" class="net_30 width_1"/><line x1="37" x2="37" y1="92" y2="122" class="net_30 width_1" style="stroke-width: 1"/><line x1="37" x2="37" y1="172" y2="182" class="net_31 width_1" style="stroke-width: 1"/><circle cx="37" cy="182" r="2" style="fill:#000" class="net_31 width_1"/><line x1="37" x2="47" y1="182" y2="182" class="net_31 width_1" style="stroke-width: 1"/><line x1="47" x2="37" y1="182" y2="182" class="net_31 width_1" style="stroke-width: 1"/><circle cx="37" cy="182" r="2" style="fill:#000" class="net_31 width_1"/><line x1="37" x2="37" y1="182" y2="212" class="net_31 width_1" style="stroke-width: 1"/><line x1="147" x2="147" y1="262" y2="272" class="net_5 width_1" style="stroke-width: 1"/><line x1="242" x2="242" y1="262" y2="272" class="net_5 width_1" style="stroke-width: 1"/><line x1="242" x2="147" y1="272" y2="272" class="net_5 width_1" style="stroke-width: 1"/><line x1="37" x2="37" y1="262" y2="272" class="net_5 width_1" style="stroke-width: 1"/><circle cx="147" cy="272" r="2" style="fill:#000" class="net_5 width_1"/><line x1="37" x2="147" y1="272" y2="272" class="net_5 width_1" style="stroke-width: 1"/></svg>