<svg xmlns="http://www.w3.org/2000/svg" xmlns:xlink="http://www.w3.org/1999/xlink" xmlns:s="https://github.com/nturley/netlistsvg" width="274" height="149"><style>svg {
  stroke: #000;
  fill: none;
}
text {
  fill: #000;
  stroke: none;
  font-size: 10px;
  font-weight: bold;
  font-family: "Courier New", monospace;
}
.nodelabel {
  text-anchor: middle;
}
.inputPortLabel {
  text-anchor: end;
}
.splitjoinBody {
  fill: #000;
}
.symbol {
  stroke-linejoin: round;
  stroke-linecap: round;
  stroke-width: 2;
}
.detail {
  stroke-linejoin: round;
  stroke-linecap: round;
  fill: #000;
}</style><g s:type="breaker_v" s:width="60" s:height="50" transform="translate(12,32)" id="cell_K1"><s:alias val="breaker_v"/><rect x="10" y="10" width="30" height="30" class="symbol cell_K1"/><text x="45" y="30" s:attribute="ref" class="cell_K1">K1</text><line x1="25" y1="0" x2="25" y2="10" class="connect cell_K1"/><line x1="25" y1="40" x2="25" y2="50" class="connect cell_K1"/><g s:x="25" s:y="0" s:pid="A" s:position="top"/><g s:x="25" s:y="50" s:pid="B" s:position="bottom"/></g><g s:type="switch_v" s:width="40" s:height="50" transform="translate(32,87)" id="cell_SW1"><s:alias val="switch_v"/><line x1="5" y1="0" x2="5" y2="5" class="connect cell_SW1"/><line x1="5" y1="45" x2="5" y2="50" class="connect cell_SW1"/><path d="M5,0 v10 l10,20" class="symbol cell_SW1"/><path d="M5,35 v10" class="symbol cell_SW1"/><text x="25" y="20" s:attribute="ref" class="cell_SW1">SW1</text><g s:x="5" s:y="0" s:pid="A" s:position="top"/><g s:x="5" s:y="50" s:pid="B" s:position="bottom"/></g><g s:type="breaker_v" s:width="60" s:height="50" transform="translate(107,32)" id="cell_K2"><s:alias val="breaker_v"/><rect x="10" y="10" width="30" height="30" class="symbol cell_K2"/><text x="45" y="30" s:attribute="ref" class="cell_K2">K2</text><line x1="25" y1="0" x2="25" y2="10" class="connect cell_K2"/><line x1="25" y1="40" x2="25" y2="50" class="connect cell_K2"/><g s:x="25" s:y="0" s:pid="A" s:position="top"/><g s:x="25" s:y="50" s:pid="B" s:position="bottom"/></g><g s:type="switch_v" s:width="40" s:height="50" transform="translate(127,87)" id="cell_SW2"><s:alias val="switch_v"/><line x1="5" y1="0" x2="5" y2="5" class="connect cell_SW2"/><line x1="5" y1="45" x2="5" y2="50" class="connect cell_SW2"/><path d="M5,0 v10 l10,20" class="symbol cell_SW2"/><path d="M5,35 v10" class="symbol cell_SW2"/><text x="25" y="20" s:attribute="ref" class="cell_SW2">SW2</text><g s:x="5" s:y="0" s:pid="A" s:position="top"/><g s:x="5" s:y="50" s:pid="B" s:position="bottom"/></g><g s:type="breaker_v" s:width="60" s:height="50" transform="translate(202,32)" id="cell_K3"><s:alias val="breaker_v"/><rect x="10" y="10" width="30" height="30" class="symbol cell_K3"/><text x="45" y="30" s:attribute="ref" class="cell_K3">K3</text><line x1="25" y1="0" x2="25" y2="10" class="connect cell_K3"/><line x1="25" y1="40" x2="25" y2="50" class="connect cell_K3"/><g s:x="25" s:y="0" s:pid="A" s:position="top"/><g s:x="25" s:y="50" s:pid="B" s:position="bottom"/></g><g s:type="switch_v" s:width="40" s:height="50" transform="translate(222,87)" id="cell_SW3"><s:alias val="switch_v"/><line x1="5" y1="0" x2="5" y2="5" class="connect cell_SW3"/><line x1="5" y1="45" x2="5" y2="50" class="connect cell_SW3"/><path d="M5,0 v10 l10,20" class="symbol cell_SW3"/><path d="M5,35 v10" class="symbol cell_SW3"/><text x="25" y="20" s:attribute="ref" class="cell_SW3">SW3</text><g s:x="5" s:y="0" s:pid="A" s:position="top"/><g s:x="5" s:y="50" s:pid="B" s:position="bottom"/></g><line x1="37" x2="37" y1="22" y2="32" class="net_2 width_1" style="stroke-width: 1"/><line x1="37" x2="132" y1="22" y2="22" class="net_2 width_1" style="stroke-width: 1"/><circle cx="132" cy="22" r="2" style="fill:#000" class="net_2 width_1"/><line x1="132" x2="132" y1="22" y2="32" class="net_2 width_1" style="stroke-width: 1"/><line x1="37" x2="227" y1="22" y2="22" class="net_2 width_1" style="stroke-width: 1"/><line x1="227" x2="227" y1="22" y2="32" class="net_2 width_1" style="stroke-width: 1"/><line x1="37" x2="37" y1="82" y2="87" class="net_3 width_1" style="stroke-width: 1"/><line x1="132" x2="132" y1="82" y2="87" class="net_4 width_1" style="stroke-width: 1"/><line x1="227" x2="227" y1="82" y2="87" class="net_5 width_1" style="stroke-width: 1"/></svg>