<svg xmlns="http://www.w3.org/2000/svg" xmlns:xlink="http://www.w3.org/1999/xlink" xmlns:s="https://github.com/nturley/netlistsvg" width="539" height="535"><style>svg {
  stroke: #000;
  fill: none;
}
text {
  fill: #000;
  stroke: none;
  font-size: 10px;
  font-weight: bold;
  font-family: "Courier New", monospace;
}
.nodelabel {
  text-anchor: middle;
}
.inputPortLabel {
  text-anchor: end;
}
.splitjoinBody {
  fill: #000;
}
.symbol {
  stroke-linejoin: round;
  stroke-linecap: round;
  stroke-width: 2;
}
.detail {
  stroke-linejoin: round;
  stroke-linecap: round;
  fill: #000;
}</style><g s:type="breaker_v" s:width="60" s:height="50" transform="translate(107,32)" id="cell_K11"><s:alias val="breaker_v"/><rect x="10" y="10" width="30" height="30" class="symbol cell_K11"/><text x="45" y="30" s:attribute="ref" class="cell_K11">K11</text><line x1="25" y1="0" x2="25" y2="10" class="connect cell_K11"/><line x1="25" y1="40" x2="25" y2="50" class="connect cell_K11"/><g s:x="25" s:y="0" s:pid="A" s:position="top"/><g s:x="25" s:y="50" s:pid="B" s:position="bottom"/></g><g s:type="switch_v" s:width="40" s:height="50" transform="translate(127,87)" id="cell_SW11"><s:alias val="switch_v"/><line x1="5" y1="0" x2="5" y2="5" class="connect cell_SW11"/><line x1="5" y1="45" x2="5" y2="50" class="connect cell_SW11"/><path d="M5,0 v10 l10,20" class="symbol cell_SW11"/><path d="M5,35 v10" class="symbol cell_SW11"/><text x="25" y="20" s:attribute="ref" class="cell_SW11">SW11</text><g s:x="5" s:y="0" s:pid="A" s:position="top"/><g s:x="5" s:y="50" s:pid="B" s:position="bottom"/></g><g s:type="line_exit" s:width="50" s:height="30" transform="translate(142,142)" id="cell_LINE1"><s:alias val="line_exit"/><text class="nodelabel cell_LINE1" x="20" y="25" s:attribute="ref">LINE1</text><text class="nodelabel cell_LINE1" x="20" y="35" s:attribute="value"></text><line x1="0" y1="5" x2="10" y2="5" class="connect cell_LINE1"/><path d="M10,5 l5,5 h20 v-10 h-20 l-5,5" class="symbol cell_LINE1"/><g s:x="0" s:y="5" s:pid="A" s:position="left"/></g><g s:type="breaker_v" s:width="60" s:height="50" transform="translate(207,32)" id="cell_K12"><s:alias val="breaker_v"/><rect x="10" y="10" width="30" height="30" class="symbol cell_K12"/><text x="45" y="30" s:attribute="ref" class="cell_K12">K12</text><line x1="25" y1="0" x2="25" y2="10" class="connect cell_K12"/><line x1="25" y1="40" x2="25" y2="50" class="connect cell_K12"/><g s:x="25" s:y="0" s:pid="A" s:position="top"/><g s:x="25" s:y="50" s:pid="B" s:position="bottom"/></g><g s:type="switch_v" s:width="40" s:height="50" transform="translate(227,87)" id="cell_SW12"><s:alias val="switch_v"/><line x1="5" y1="0" x2="5" y2="5" class="connect cell_SW12"/><line x1="5" y1="45" x2="5" y2="50" class="connect cell_SW12"/><path d="M5,0 v10 l10,20" class="symbol cell_SW12"/><path d="M5,35 v10" class="symbol cell_SW12"/><text x="25" y="20" s:attribute="ref" class="cell_SW12">SW12</text><g s:x="5" s:y="0" s:pid="A" s:position="top"/><g s:x="5" s:y="50" s:pid="B" s:position="bottom"/></g><g s:type="acline_v" s:width="300" s:height="10" transform="translate(227,153)" id="cell_LINE2"><s:alias val="acline_v"/><text class="nodelabel cell_LINE2" x="25" y="-5" s:attribute="ref">LINE2</text><line x1="5" y1="0" x2="5" y2="295" class="symbol cell_LINE2"/><line x1="5" y1="0" x2="5" y2="5" class="connect cell_LINE2"/><line x1="5" y1="295" x2="5" y2="300" class="connect cell_LINE2"/><g s:x="5" s:y="0" s:pid="A" s:position="left"/><g s:x="5" s:y="300" s:pid="B" s:position="right"/></g><g s:type="breaker_v" s:width="60" s:height="50" transform="translate(12,32)" id="cell_K13"><s:alias val="breaker_v"/><rect x="10" y="10" width="30" height="30" class="symbol cell_K13"/><text x="45" y="30" s:attribute="ref" class="cell_K13">K13</text><line x1="25" y1="0" x2="25" y2="10" class="connect cell_K13"/><line x1="25" y1="40" x2="25" y2="50" class="connect cell_K13"/><g s:x="25" s:y="0" s:pid="A" s:position="top"/><g s:x="25" s:y="50" s:pid="B" s:position="bottom"/></g><g s:type="switch_v" s:width="40" s:height="50" transform="translate(32,87)" id="cell_SW13"><s:alias val="switch_v"/><line x1="5" y1="0" x2="5" y2="5" class="connect cell_SW13"/><line x1="5" y1="45" x2="5" y2="50" class="connect cell_SW13"/><path d="M5,0 v10 l10,20" class="symbol cell_SW13"/><path d="M5,35 v10" class="symbol cell_SW13"/><text x="25" y="20" s:attribute="ref" class="cell_SW13">SW13</text><g s:x="5" s:y="0" s:pid="A" s:position="top"/><g s:x="5" s:y="50" s:pid="B" s:position="bottom"/></g><g s:type="line_exit" s:width="50" s:height="30" transform="translate(47,142)" id="cell_LINE3"><s:alias val="line_exit"/><text class="nodelabel cell_LINE3" x="20" y="25" s:attribute="ref">LINE3</text><text class="nodelabel cell_LINE3" x="20" y="35" s:attribute="value"></text><line x1="0" y1="5" x2="10" y2="5" class="connect cell_LINE3"/><path d="M10,5 l5,5 h20 v-10 h-20 l-5,5" class="symbol cell_LINE3"/><g s:x="0" s:y="5" s:pid="A" s:position="left"/></g><g s:type="breaker_v" s:width="60" s:height="50" transform="translate(302,473)" id="cell_K21"><s:alias val="breaker_v"/><rect x="10" y="10" width="30" height="30" class="symbol cell_K21"/><text x="45" y="30" s:attribute="ref" class="cell_K21">K21</text><line x1="25" y1="0" x2="25" y2="10" class="connect cell_K21"/><line x1="25" y1="40" x2="25" y2="50" class="connect cell_K21"/><g s:x="25" s:y="0" s:pid="A" s:position="top"/><g s:x="25" s:y="50" s:pid="B" s:position="bottom"/></g><g s:type="breaker_v" s:width="60" s:height="50" transform="translate(397,473)" id="cell_K22"><s:alias val="breaker_v"/><rect x="10" y="10" width="30" height="30" class="symbol cell_K22"/><text x="45" y="30" s:attribute="ref" class="cell_K22">K22</text><line x1="25" y1="0" x2="25" y2="10" class="connect cell_K22"/><line x1="25" y1="40" x2="25" y2="50" class="connect cell_K22"/><g s:x="25" s:y="0" s:pid="A" s:position="top"/><g s:x="25" s:y="50" s:pid="B" s:position="bottom"/></g><g s:type="breaker_v" s:width="60" s:height="50" transform="translate(207,473)" id="cell_K23"><s:alias val="breaker_v"/><rect x="10" y="10" width="30" height="30" class="symbol cell_K23"/><text x="45" y="30" s:attribute="ref" class="cell_K23">K23</text><line x1="25" y1="0" x2="25" y2="10" class="connect cell_K23"/><line x1="25" y1="40" x2="25" y2="50" class="connect cell_K23"/><g s:x="25" s:y="0" s:pid="A" s:position="top"/><g s:x="25" s:y="50" s:pid="B" s:position="bottom"/></g><line x1="37" x2="132" y1="22" y2="22" class="net_10 width_1" style="stroke-width: 1"/><circle cx="132" cy="22" r="2" style="fill:#000" class="net_10 width_1"/><line x1="132" x2="132" y1="22" y2="32" class="net_10 width_1" style="stroke-width: 1"/><line x1="37" x2="232" y1="22" y2="22" class="net_10 width_1" style="stroke-width: 1"/><line x1="232" x2="232" y1="22" y2="32" class="net_10 width_1" style="stroke-width: 1"/><line x1="37" x2="37" y1="22" y2="32" class="net_10 width_1" style="stroke-width: 1"/><line x1="132" x2="132" y1="82" y2="87" class="net_11 width_1" style="stroke-width: 1"/><line x1="232" x2="232" y1="82" y2="87" class="net_21 width_1" style="stroke-width: 1"/><line x1="37" x2="37" y1="82" y2="87" class="net_31 width_1" style="stroke-width: 1"/><line x1="232" x2="232" y1="453" y2="463" class="net_100 width_1" style="stroke-width: 1"/><line x1="232" x2="327" y1="463" y2="463" class="net_100 width_1" style="stroke-width: 1"/><circle cx="232" cy="463" r="2" style="fill:#000" class="net_100 width_1"/><circle cx="327" cy="463" r="2" style="fill:#000" class="net_100 width_1"/><line x1="327" x2="327" y1="463" y2="473" class="net_100 width_1" style="stroke-width: 1"/><line x1="232" x2="232" y1="453" y2="463" class="net_100 width_1" style="stroke-width: 1"/><line x1="232" x2="422" y1="463" y2="463" class="net_100 width_1" style="stroke-width: 1"/><line x1="422" x2="422" y1="463" y2="473" class="net_100 width_1" style="stroke-width: 1"/><line x1="232" x2="232" y1="453" y2="473" class="net_100 width_1" style="stroke-width: 1"/><line x1="132" x2="132" y1="137" y2="147" class="net_12 width_1" style="stroke-width: 1"/><line x1="132" x2="142" y1="147" y2="147" class="net_12 width_1" style="stroke-width: 1"/><line x1="232" x2="232" y1="137" y2="153" class="net_22 width_1" style="stroke-width: 1"/><line x1="37" x2="37" y1="137" y2="147" class="net_32 width_1" style="stroke-width: 1"/><line x1="37" x2="47" y1="147" y2="147" class="net_32 width_1" style="stroke-width: 1"/></svg>